<svg width="19" height="12" viewBox="0 0 19 12" fill="none" xmlns="http://www.w3.org/2000/svg">
<path fill-rule="evenodd" clip-rule="evenodd" d="M9.5004 0C3.22295 0 0 6 0 6C0 6 2.43204 12 9.5004 12C15.9012 12 19 6.02325 19 6.02325C19 6.02325 15.8767 0 9.5004 0ZM9.51463 9.75C7.21941 9.75 5.56009 8.109 5.56009 6C5.56009 3.89025 7.21941 2.25 9.51463 2.25C11.8098 2.25 13.4692 3.89025 13.4692 6C13.4692 8.109 11.8098 9.75 9.51463 9.75ZM9.51463 3.75C8.20331 3.75225 7.14191 4.79475 7.14191 6C7.14191 7.2045 8.20331 8.25 9.51463 8.25C10.826 8.25 11.8874 7.20375 11.8874 6C11.8874 4.794 10.826 3.74775 9.51463 3.75Z" fill="#7C828B"/>
</svg>
